<?xml version="1.0" encoding="UTF-8"?>
<svg version="1.1" viewBox="0 0 2000 2000" width="80" height="80" xmlns="http://www.w3.org/2000/svg">
<path transform="translate(343,1128)" d="m0 0 10 3 98 38 43 17 7 3 1 2 1 113 2 8 4 3 7 1 54-8h8l7 10 13 19 11 14 11 13 15 16 14 14 8 7 13 11 17 13 27 18 25 15 19 10 25 11 29 11 36 11 25 6 44 7 21 2 19 1h51l29-2 25-3 41-7 30-7 38-11 3 1-16 8-36 15-35 13-31 11-40 12-48 12-43 9-40 7-48 6h-7v-2l15-6 24-10 26-12 10-6 1-2-30-2-32-4-28-5-37-8-31-9-41-14-28-12-20-9-36-18-27-16-19-12-16-11-32-24-17-14-11-9-9-9-8-7-22-22-7-8-13-14-11-14-12-15-13-18-15-24-13-23-11-22-8-19-9-25-7-24z" fill="#B906D4"/>
<path transform="translate(1438,1170)" d="m0 0h7l-2 5-8 12-10 14-7 9 1 11 3 18 2 1 10-16 9-15 12-22 9-17 1 2-8 20-8 18-14 24-10 17v3l23 2 19 3 6 3 12 14 5 8-1 7-16 16-8 7-10 9-8 7-12 11-2 4-2 47-1 17-3 8-4 3-9-2-17-12-18-13-6-4-6 1-27 16-22 13-8 2-7-4-11-13-4-6-1-3-5 2-17 10-25 14-29 14-27 11-40 13-32 8-21 4-30 4-27 2h-42l-26-2-34-5-29-6-28-8-28-10-2-2 9 2 28 7 40 7 16 2 19 1h53l25-2 28-4 28-5 28-7 30-9 31-11 20-9 16-7 16-8 28-15 22-13 14-10 4-7 10-26v-7l-3-4v-2l-9 5-21 14-15 9-24 14-19 10-23 11-27 11-26 10-31 10-38 10-47 9-31 4-27 2h-47l-26-2-30-4-29-6-29-8-22-8-23-10-20-11-20-13-12-9-13-11-39-39-7-8-6-8v-3h5l11 10 16 12 17 12 14 8 23 12 25 10 27 9 24 6 27 5 32 4 24 2h40l40-3 33-4 40-8 40-10 26-8 40-15 25-11 30-14 22-12 21-12 22-14 9-7 12-8 16-12 16-13 11-9 12-11 8-7 28-28 5-2zm-46 25-8 11-10 17-14 23-7 11-4 3-22 4-40 7-4 3 12 17 13 18 10 14-1 8-15 40-7 17-1 7 7-1 24-14 25-15 7-2 8 4 19 14 21 14h2l1-9 3-57 2-9 10-10 8-7 13-12 10-9 12-11 2-4-7-2-35-4-16-3-4-8-9-46-2-9z" fill="#B908D4"/>
<path transform="translate(657,467)" d="m0 0h6l6 4 7 8 8 11 4 17 4 21v4l33 4 14 3 10 11 9 14-1 5-5 6-8 7-13 12-20 18-9 8-1 2-2 31 8-7 11-11 8-7 13-11 11-8 13-9 22-14 22-12 25-12 23-9 25-8 24-6 26-5 27-3 22-1h21l24 2 24 4 27 7 27 11 15 8 17 12 14 12 10 10 12 16 9 16 6 15 4 13 3 15 1 15v12l-1 20-4 20-4 13-13 3-83 13-18 3h-6l2-4 12-19 9-17 6-16 4-17 2-13v-18l-3-17-5-16-8-15-9-12-5-6-11-9-15-10-19-9-21-7-20-4-22-2h-19l-25 2-23 4-26 7-25 9-24 11-16 9-12 8-14 10-10 8-10 9-17 17-13 17-10 15-8 15-7 19-4 17-1 7v29l4 18 5 13 10 16 3 4v2l-9 2-73 12-3-1-3-16v-28l2-17 5-22 7-19 9-20 10-17 6-8v-3l-16-11-13-9-7 1-34 20-16 9-7 2-4-2-7-8-10-12-1-2v-8l11-29 10-26 2-6-1-6-10-14-14-19-8-12-1-5 3-5 8-3 46-8 12-2 5-5 21-35 11-18zm3 7-4 4-8 13-17 28-11 17-5 3-28 5-31 5-4 2 1 5 14 19 13 18 5 7 1 4-7 21-15 39-2 6v4l9-3 26-15 15-9 10-5 6 1 11 7 18 13 13 9 5 1 2-34 2-36 2-5 9-9 8-7 12-11 14-12 10-9 2-4-5-2-48-6-7-3-3-9-8-42-2-9z" fill="#B907D4"/>
<path transform="translate(1146,396)" d="m0 0h8l-4 4-21 10-23 13-25 15 3 1h23l30 1 37 3 35 5 27 5 48 12 25 8 23 8 32 13 26 12 15 8 12 6 24 14 23 14 19 13 21 16 13 10 11 9 15 13 16 15 17 17 7 8 9 10 9 11 9 12v2l-35 6-10 3-12 14-8 9-6 9h-2l-1 2-2-22-5-6h-12l-46 7-8 1-10-19-12-21-14-21-10-13-13-15-11-12-19-19-11-9-10-9-19-14-26-17-21-12-16-8-24-11-34-13-31-9-24-6-32-5-28-3-33-2h-31l-37 3-38 5-26 5-28 7-37 11-27 10-18 7-3-1 15-9 34-18 31-15 20-9 27-11 35-13 34-12 26-8 44-12 49-11z" fill="#B907D4"/>
<path transform="translate(1521,709)" d="m0 0 3 1v126l-4 2-56 9h-8v-59l-16 3v76l43-7 32-5h9v65l-6 2-200 32-28 5h-5l-1-2v-64l4-2 78-12h3v-78l-16 4v57l-2 2-22 4-38 6h-6l-1-1v-125l4-2 57-9 126-20 45-7z" fill="#B906D4"/>
<path transform="translate(1261,974)" d="m0 0h5l1 8v117l-3 3-63 10h-2v-60l-17 2-1 78 41-7 39-6h5l1 5v61l-6 2-220 35-13 2-1-1v-66l7-2 76-12h2v-78l-14 3h-3v60l-20 4-43 7-5-1v-126l7-2 56-9 120-19z" fill="#B906D4"/>
<path transform="translate(745,1056)" d="m0 0h7l1 1v210l-20 4-64 10-36 6-5-3-11-10-11-9-6-6v-112l-16 3-1 144-15 3-49 8h-5l-1-1v-209l1-2 36-6 75-12 10-1 10 8 15 13 5 4 2 4v110l16-2 1-145 36-6z" fill="#B906D4"/>
<path transform="translate(714,837)" d="m0 0h10l13 12 11 9 6 7v48l-4 6-9 10-9 11v3l11 9 10 9 1 2v79l-3 2-64 10h-5l-1-6v-77l-36 6-39 6h-5l-1-13v-25l1-4 8-2 73-12h2v-17l-99 16v77l68-11 11-1 1 65-5 3-104 16-37 6h-4v-211l6-2 125-20 63-10z" fill="#B906D4"/>
<path transform="translate(1741,674)" d="m0 0h9l8 7 13 12 7 6 1 2v148l-13 16-11 14-5 6-13 3-149 24-8 1h-9l-10-9-11-9-9-8v-148l6-8 8-9 9-11 9-10 61-10 81-13zm-36 73-83 13-10 2-1 1v77h7l92-15 1-1v-77z" fill="#B906D4"/>
<path transform="translate(459,878)" d="m0 0h7l11 9 14 12 5 4 1 2v64l-6 2-57 9h-6v-29l-51 8-45 7-4 1-1 77 80-13 19-3 1-1 1-29 30-5 32-5h6l1 1v64l-11 13-9 11-10 12-20 4-132 21-19 3h-8l-15-13-10-9-5-4-1-7v-140l4-6 10-11 8-10 10-11 13-3 101-16z" fill="#B906D4"/>
<path transform="translate(1e3 1015)" d="m0 0h9v66l-13 3-70 11-2 1v76l34-5 43-7h8v66l-7 2-196 31-30 5h-7v-66l6-2 57-9 22-3v-78l-9 2-64 10-5 1h-7v-66l6-2 56-9 138-22z" fill="#B906D4"/>
<path transform="translate(1e3 791)" d="m0 0h7v112l-1 9-8 9-9 11-13 15-12 3-37 6-5 1-1 58-6 2-56 9h-7v-58l-39 6-6 1h-10l-3-2v-2l-4-2-13-12-9-7-1-2v-118l2-2 101-16h8l1 65-3 2-31 5-9 1v17l100-16 1-17-15 3-19 3h-7l-1-3 1-64 36-6z" fill="#B906D4"/>
<path transform="translate(1232,755)" d="m0 0 5 1 11 9 13 12 6 5v88l-7 9-24 28-48 8-46 7-19 3h-8l-1-8v-53l1-5 13-3 65-10h4l1-17-77 12-23 4-1 143-6 2-58 9h-5l-1-7v-122l1-81 5-2 68-11 63-10z" fill="#B906D4"/>
<path transform="translate(1519,933)" d="m0 0h4v66l-5 2-132 21-33 5v77l166-26h4l1 65-2 2-35 6-69 11-70 11-30 5-5-1-7-7-11-9-10-9-2-5v-135l1-10 13-15 9-11 9-10 8-2 76-12z" fill="#B906D4"/>
<path transform="translate(913,602)" d="m0 0 27 1 16 4 12 5 12 7 9 8 9 12 5 11 2 7 1 9v9l-2 13-6 17-9 15-8 10-9 10-11 9-12 9-16 9-17 8-28 8-14 2-13 1h-16l-17-3-15-5-15-8-13-12-7-10-5-12-2-8v-19l3-14 5-12 8-14 7-9 9-10 12-11 14-10 16-9 15-7 18-6 22-4zm-20 31-5 6-15 25-5 5-21 4-13 2-2 1 2 5 7 9 9 13v7l-10 26-2 5v3l5-1 24-14 4-2 5 1 18 13 6 3 2-16 2-25 14-14 11-9 5-5v-2l-10-2-22-3-2-6-4-19-2-10z" fill="#B906D4"/>
<path transform="translate(1259,1198)" d="m0 0v3l-11 8-19 12-20 12-18 10-27 14-24 11-27 11-30 11-29 9-32 8-39 8-36 5-37 3h-50l-42-4-31-5-25-6-36-12-16-6-2-4 31-5 20-4 4-3 10 1 54-8 94-15 83-13 12-3 4-3 4 1h9l164-26z" fill="#B906D4"/>
<path transform="translate(1103,530)" d="m0 0 7 1 31 6 36 12 30 11 29 14 19 11 19 14 11 10 8 7 9 9 9 11 12 17 10 17 8 18 7 21 3 12v3l-11 3-50 8-5 1h-7v-20l-3-26-5-21-7-19-12-23-10-14-12-14-11-11-11-9-15-11-17-10-19-9-25-9-26-8z" fill="#BA09D4"/>
<path transform="translate(1272,881)" d="m0 0 4 1-2 7-1 27v46l-25 3-132 21h-7l1-4 20-14 14-11 13-11 11-9 9-8 9-3 45-7 10-3 8-7 13-15z" fill="#B907D4"/>
<path transform="translate(1516,1018)" d="m0 0h7v42l-14 3-109 17-23 4h-7v-42l7-2 88-14z" fill="#B906D4"/>
<path transform="translate(544,745)" d="m0 0h8l1 1v9l-4 11-5 6-17 4-4 2-4 7-2 7-1 8 12-1h10l1 1v7l-4 12-5 6-9 3-11 1-3-2 1-9 2-10-1-2h-8l-11 3-4 5-6 16-5 5-11 3-8 1-3-1-1-6 3-12-1-4h-10l-10 4-4 6-4 13-4 5-13 4h-9l-2-3 1-8 3-9 5-6 18-5 5-4 4-9 1-9-1-2-10 1-9 1-3-3 1-8 4-11 7-6 6-2 8-1 6 2v8l-2 7v6l5 1 12-3 5-3 3-5 4-13 4-5 7-3 5-1h11l1 1-1 10-1 4v8h7l13-4 4-6 4-12 5-7 9-3zm-65 38-9 3-4 4-4 9-1 10 2 2 9-1 10-3 6-8 2-7v-7l-2-2z" fill="#BA08D4"/>
<path transform="translate(1692,921)" d="m0 0h11l1 6-3 10-3 6-4 4-20 6-5 8-2 7-1 8 11-1h11l1 1-1 11-4 10-6 5-8 2h-12l-1-6 2-6v-11l-9 1-11 3-4 7-4 12-6 7-11 3h-10l-1-2v-7l2-8v-5l-5-1-11 2-7 4-7 19-6 5-12 3h-8l-1-1v-7l4-12 5-6 13-4 8-3 4-6 3-13-1-3-10 1h-10l-2-4 1-8 4-10 6-5 11-3h8l2 1v9l-3 14 15-2 7-3 3-4 5-15 3-5 7-3 15-2 3 3-3 16 1 4 5 1 13-3 5-5 6-17 5-5zm-64 38-9 3-4 5-3 9v9l1 1h8l9-2 5-4 4-8 1-3v-10z" fill="#B908D4"/>
<path transform="translate(1013,1092)" d="m0 0 3 2-1 39-19 6-36 9-16 3h-8v-46l21-4z" fill="#B905D4"/>
<path transform="translate(841,1120)" d="m0 0 3 1v38l-1 1h-18l-35-3-24-4-2-2v-20l64-9z" fill="#B908D4"/>
<path transform="translate(1659,766)" d="m0 0 4 2 14 35v4l-12-3-40-12-3-3v-16l5-2z" fill="#B907D4"/>
<path transform="translate(630,721)" d="m0 0 1 2-13 23-12 23-10 25-6 21-5 26-1 6-11 2h-7l1-5 9-26 13-28 10-20 10-17 11-17 7-11z" fill="#BD14D6"/>
<path transform="translate(1366,673)" d="m0 0 7 6 10 10 11 14 8 11-1 3-8 1-11-20-15-22z" fill="#C124D9"/>
<path transform="translate(666,1069)" d="m0 0h6v20l-6-3v-2l-4-2-10-9 2-2z" fill="#BB0DD5"/>
<path transform="translate(1278,1162)" d="m0 0 5 3 9 8-1 4-10 7h-3z" fill="#BC10D6"/>
<path transform="translate(758,927)" d="m0 0 2 2v20h-4l-8-7 1-5 7-9z" fill="#BD14D6"/>
<path transform="translate(630,721)" d="m0 0 1 2-13 23-2-4 11-17z" fill="#D15DE2"/>
<path transform="translate(845,1444)" d="m0 0 9 2 19 5 1 4-11-3-18-7z" fill="#F1D0F6"/>
<path transform="translate(1103,530)" d="m0 0 7 1 15 3 2 2-2 2-20-6z" fill="#EAB6F2"/>
<path transform="translate(1464,1170)" d="m0 0 1 2-5 13-2-4z" fill="#FBF5FC"/>
<path transform="translate(630,721)" d="m0 0 1 2-7 12-1-4z" fill="#F1CFF6"/>
<path transform="translate(1362,668)" d="m0 0 4 3-1 2-3-3z" fill="#FEFEFE"/>
<path transform="translate(842,1443)" d="m0 0 3 1z" fill="#FEFEFE"/>
<path transform="translate(840,1442)" d="m0 0" fill="#FEFEFE"/>
<path transform="translate(631,720)" d="m0 0" fill="#FEFEFE"/>
<path transform="translate(632,719)" d="m0 0" fill="#FEFEFE"/>
<path transform="translate(1361,667)" d="m0 0" fill="#FEFEFE"/>
<path transform="translate(1360,666)" d="m0 0" fill="#FEFEFE"/>
<path transform="translate(1359,665)" d="m0 0" fill="#FEFEFE"/>
</svg>
